<svg id="particle_1" data-name="Particle 1" xmlns="http://www.w3.org/2000/svg" viewBox="0 0 83.07 83.07"><defs><style>.particle-1{fill:#f0f1f2;}</style></defs><title>particle_1</title><path class="particle-1" d="M83.22,7.11c-4.37,4.37-9.19,4.07-13,3.83-3.45-.21-6.17-.38-8.76,2.21S59,18.46,59.2,21.91c.24,3.86.54,8.68-3.83,13.05s-9.18,4.07-13,3.83c-3.44-.22-6.16-.39-8.75,2.2s-2.42,5.31-2.21,8.76c.24,3.87.54,8.68-3.83,13s-9.18,4.07-13,3.83c-3.44-.22-6.16-.39-8.75,2.2a2.79,2.79,0,0,1-3.95-3.94c4.37-4.37,9.18-4.07,13.05-3.83,3.45.21,6.17.38,8.76-2.21s2.42-5.31,2.2-8.75c-.24-3.87-.54-8.68,3.83-13.05S38.8,33,42.67,33.22c3.45.21,6.17.38,8.76-2.21s2.42-5.31,2.21-8.76c-.24-3.86-.54-8.67,3.83-13s9.18-4.07,13-3.83c3.45.21,6.17.38,8.76-2.21a2.79,2.79,0,1,1,4,3.94Z" transform="translate(-0.97 -2.35)"/></svg>